<svg height="24" viewBox="0 0 24 24" width="24" xmlns="http://www.w3.org/2000/svg"><path d="m12.1099561 17.3015551c-3.07397317 0-5.60146219-2.4591785-5.60146219-5.4648411 0-3.00566261 2.52748902-5.46484111 5.60146219-5.46484111 3.0739731 0 5.6014621 2.4591785 5.6014621 5.46484111 0 3.0056626-2.527489 5.4648411-5.6014621 5.4648411zm0-15.3015551c-5.60146219 0-10.1099561 4.4401834-10.1099561 9.836714 0 5.4648411 4.50849391 9.836714 10.1099561 9.836714 2.3225574 0 4.4401834-.7514157 6.1479462-2.0493154 1.0246577 1.7077628 3.9620098 2.0493154 3.9620098 2.0493154v-9.836714c0-5.3965306-4.5084939-9.836714-10.109956-9.836714z" fill="#ff8300" fill-rule="evenodd"/></svg>